0
SECTION
2
HEADER
9
$INSUNITS
70
4
9
$ACADVER
1
AC1014
9
$HANDSEED
5
FFFF
0
ENDSEC
0
SECTION
2
TABLES
0
TABLE
2
VPORT
5
8
100
AcDbSymbolTable
0
ENDTAB
0
TABLE
2
LTYPE
5
5
100
AcDbSymbolTable
0
LTYPE
5
14
100
AcDbSymbolTableRecord
100
AcDbLinetypeTableRecord
2
BYBLOCK
70
0
0
LTYPE
5
15
100
AcDbSymbolTableRecord
100
AcDbLinetypeTableRecord
2
BYLAYER
70
0
0
ENDTAB
0
TABLE
2
LAYER
5
2
100
AcDbSymbolTable
70
2
0
LAYER
5
50
100
AcDbSymbolTableRecord
100
AcDbLayerTableRecord
2
0
70
0
6
CONTINUOUS
0
ENDTAB
0
TABLE
2
STYLE
5
3
100
AcDbSymbolTable
70
1
0
STYLE
5
11
100
AcDbSymbolTableRecord
100
AcDbTextStyleTableRecord
2
STANDARD
70
0
0
ENDTAB
0
TABLE
2
VIEW
5
6
100
AcDbSymbolTable
70
0
0
ENDTAB
0
TABLE
2
UCS
5
7
100
AcDbSymbolTable
70
0
0
ENDTAB
0
TABLE
2
APPID
5
9
100
AcDbSymbolTable
70
2
0
APPID
5
12
100
AcDbSymbolTableRecord
100
AcDbRegAppTableRecord
2
ACAD
70
0
0
ENDTAB
0
TABLE
2
DIMSTYLE
5
A
100
AcDbSymbolTable
70
1
0
ENDTAB
0
TABLE
2
BLOCK_RECORD
5
1
100
AcDbSymbolTable
70
1
0
BLOCK_RECORD
5
1F
100
AcDbSymbolTableRecord
100
AcDbBlockTableRecord
2
*MODEL_SPACE
0
BLOCK_RECORD
5
1B
100
AcDbSymbolTableRecord
100
AcDbBlockTableRecord
2
*PAPER_SPACE
0
ENDTAB
0
ENDSEC
0
SECTION
2
BLOCKS
0
BLOCK
5
20
100
AcDbEntity
100
AcDbBlockBegin
2
*MODEL_SPACE
0
ENDBLK
5
21
100
AcDbEntity
100
AcDbBlockEnd
0
BLOCK
5
1C
100
AcDbEntity
100
AcDbBlockBegin
2
*PAPER_SPACE
0
ENDBLK
5
1D
100
AcDbEntity
100
AcDbBlockEnd
0
ENDSEC
0
SECTION
2
ENTITIES
0
LINE
5
100
100
AcDbEntity
8
0
100
AcDbLine
10
50
20
0
30
0
11
247.0000025856626
21
0
31
0
0
ARC
5
101
100
AcDbEntity
8
0
100
AcDbCircle
10
247.0000025856626
20
49.999999999999986
30
0
40
49.999999999999986
210
-0
220
0
230
1
100
AcDbArc
50
270
51
359.99999704244129
0
LINE
5
102
100
AcDbEntity
8
0
100
AcDbLine
10
297.00000258566251
20
49.999997414337358
30
0
11
297.00001060324331
21
204.99999974185928
31
0
0
ARC
5
103
100
AcDbEntity
8
0
100
AcDbCircle
10
292.00001060324331
20
205
30
0
40
5.0000000000000071
210
-0
220
0
230
1
100
AcDbArc
50
-2.9575586647481235e-06
51
90
0
LINE
5
104
100
AcDbEntity
8
0
100
AcDbLine
10
292.00001060324331
20
210
30
0
11
5
21
210
31
0
0
ARC
5
105
100
AcDbEntity
8
0
100
AcDbCircle
10
5.0000000000000107
20
205
30
0
40
5
210
0
220
0
230
1
100
AcDbArc
50
90.000000000000114
51
180
0
LINE
5
106
100
AcDbEntity
8
0
100
AcDbLine
10
1.1657341758564144e-14
20
205
30
0
11
0
21
50
31
0
0
ARC
5
107
100
AcDbEntity
8
0
100
AcDbCircle
10
49.999999999999964
20
49.999999999999964
30
0
40
49.999999999999964
210
0
220
0
230
1
100
AcDbArc
50
180
51
270.00000000000006
0
ARC
5
108
100
AcDbEntity
8
0
100
AcDbCircle
10
111.20000544044551
20
199
30
0
40
1.000000000000024
210
0
220
-0
230
1
100
AcDbArc
50
7.9175710768455929e-06
51
90
0
LINE
5
109
100
AcDbEntity
8
0
100
AcDbLine
10
112.20000544044552
20
199.00000013879725
30
0
11
112.2000061344319
21
194.00000013879736
31
0
0
ARC
5
110
100
AcDbEntity
8
0
100
AcDbCircle
10
111.20000613443183
20
194.00000000000009
30
0
40
1.0000000000000853
210
-0
220
0
230
1
100
AcDbArc
50
-90
51
7.9175710768455929e-06
0
LINE
5
111
100
AcDbEntity
8
0
100
AcDbLine
10
111.20000613443183
20
193
30
0
11
108.20000530164826
21
193
31
0
0
ARC
5
112
100
AcDbEntity
8
0
100
AcDbCircle
10
108.20000530164826
20
194
30
0
40
0.99999999999999645
210
0
220
0
230
1
100
AcDbArc
50
180
51
270
0
LINE
5
113
100
AcDbEntity
8
0
100
AcDbLine
10
107.20000530164826
20
194
30
0
11
107.20000530164826
21
199
31
0
0
ARC
5
114
100
AcDbEntity
8
0
100
AcDbCircle
10
108.20000530164828
20
199
30
0
40
1.0000000000000142
210
0
220
-0
230
1
100
AcDbArc
50
90
51
180
0
LINE
5
115
100
AcDbEntity
8
0
100
AcDbLine
10
108.20000530164828
20
200
30
0
11
111.20000544044551
21
200
31
0
0
ARC
5
116
100
AcDbEntity
8
0
100
AcDbCircle
10
188.8000053015526
20
198.99999999370763
30
0
40
0.99999999999990763
210
-0
220
0
230
1
100
AcDbArc
50
0
51
89.999999995347537
0
LINE
5
117
100
AcDbEntity
8
0
100
AcDbLine
10
189.80000530155252
20
198.99999999369894
30
0
11
189.800005301509
21
193.99999999369189
31
0
0
ARC
5
118
100
AcDbEntity
8
0
100
AcDbCircle
10
188.80000530145782
20
193.99999999370061
30
0
40
1.0000000000582077
210
0
220
0
230
1
100
AcDbArc
50
269.99999999941866
51
360
0
LINE
5
119
100
AcDbEntity
8
0
100
AcDbLine
10
188.80000530144767
20
192.9999999936424
30
0
11
185.80000516246685
21
192.99999999367273
31
0
0
ARC
5
120
100
AcDbEntity
8
0
100
AcDbCircle
10
185.80000516247702
20
193.99999999367279
30
0
40
1.0000000000000497
210
0
220
0
230
1
100
AcDbArc
50
180
51
269.99999999941701
0
LINE
5
121
100
AcDbEntity
8
0
100
AcDbLine
10
184.80000516247696
20
193.9999999937051
30
0
11
184.8000051626336
21
198.99999999386156
31
0
0
ARC
5
122
100
AcDbEntity
8
0
100
AcDbCircle
10
185.80000516275538
20
198.99999999382928
30
0
40
1.0000000001218012
210
0
220
-0
230
1
100
AcDbArc
50
89.999999995349171
51
180
0
LINE
5
123
100
AcDbEntity
8
0
100
AcDbLine
10
185.80000516283656
20
199.99999999395106
30
0
11
188.8000053016338
21
199.99999999370755
31
0
0
ARC
5
124
100
AcDbEntity
8
0
100
AcDbCircle
10
43.400005440445504
20
199
30
0
40
1.000000000000006
210
0
220
-0
230
1
100
AcDbArc
50
7.9175710768455929e-06
51
90
0
LINE
5
125
100
AcDbEntity
8
0
100
AcDbLine
10
44.400005440445504
20
199.00000013879725
30
0
11
44.400006134431884
21
194.0000001387973
31
0
0
ARC
5
126
100
AcDbEntity
8
0
100
AcDbCircle
10
43.400006134431877
20
194.00000000000003
30
0
40
1.0000000000000142
210
-0
220
0
230
1
100
AcDbArc
50
-90
51
7.9175710768455929e-06
0
LINE
5
127
100
AcDbEntity
8
0
100
AcDbLine
10
43.400006134431877
20
193
30
0
11
40.400005301648278
21
193
31
0
0
ARC
5
128
100
AcDbEntity
8
0
100
AcDbCircle
10
40.400005301648278
20
194.00000000000003
30
0
40
1.0000000000000142
210
0
220
0
230
1
100
AcDbArc
50
180
51
270
0
LINE
5
129
100
AcDbEntity
8
0
100
AcDbLine
10
39.400005301648264
20
194.00000000000003
30
0
11
39.400005301648264
21
199
31
0
0
ARC
5
130
100
AcDbEntity
8
0
100
AcDbCircle
10
40.400005301648278
20
199
30
0
40
1.0000000000000142
210
0
220
-0
230
1
100
AcDbArc
50
90
51
180
0
LINE
5
131
100
AcDbEntity
8
0
100
AcDbLine
10
40.400005301648278
20
200
30
0
11
43.400005440445504
21
200
31
0
0
ARC
5
132
100
AcDbEntity
8
0
100
AcDbCircle
10
256.60000510888273
20
198.99999999331783
30
0
40
0.99999999488680658
210
0
220
-0
230
1
100
AcDbArc
50
0
51
90
0
LINE
5
133
100
AcDbEntity
8
0
100
AcDbLine
10
257.60000510376955
20
198.99999999430298
30
0
11
257.60000510869543
21
193.99999998941698
31
0
0
ARC
5
134
100
AcDbEntity
8
0
100
AcDbCircle
10
256.60000511380866
20
193.99999998843182
30
0
40
0.99999999488680658
210
0
220
0
230
1
100
AcDbArc
50
-90
51
0
0
LINE
5
135
100
AcDbEntity
8
0
100
AcDbLine
10
256.60000511380866
20
192.999999993545
30
0
11
253.60000497482784
21
192.999999993545
31
0
0
ARC
5
136
100
AcDbEntity
8
0
100
AcDbCircle
10
253.60000497482784
20
193.9999999931614
30
0
40
0.99999999961639219
210
0
220
0
230
1
100
AcDbArc
50
180
51
270
0
LINE
5
137
100
AcDbEntity
8
0
100
AcDbLine
10
252.60000497521145
20
193.99999999315889
30
0
11
252.60000497519869
21
198.99999999331527
31
0
0
ARC
5
138
100
AcDbEntity
8
0
100
AcDbCircle
10
253.60000497008548
20
198.99999999331783
30
0
40
0.99999999488680658
210
0
220
-0
230
1
100
AcDbArc
50
90
51
180
0
LINE
5
139
100
AcDbEntity
8
0
100
AcDbLine
10
253.60000497008548
20
199.99999998820465
30
0
11
256.60000510888273
21
199.99999998820465
31
0
0
ENDSEC
0
SECTION
2
OBJECTS
0
DICTIONARY
5
C
100
AcDbDictionary
3
ACAD_GROUP
350
D
3
ACAD_MLINESTYLE
350
17
0
DICTIONARY
5
D
100
AcDbDictionary
0
DICTIONARY
5
1A
330
C
100
AcDbDictionary
0
DICTIONARY
5
17
100
AcDbDictionary
0
ENDSEC
0
EOF
