0
SECTION
2
HEADER
9
$INSUNITS
70
4
9
$ACADVER
1
AC1014
9
$HANDSEED
5
FFFF
0
ENDSEC
0
SECTION
2
TABLES
0
TABLE
2
VPORT
5
8
100
AcDbSymbolTable
0
ENDTAB
0
TABLE
2
LTYPE
5
5
100
AcDbSymbolTable
0
LTYPE
5
14
100
AcDbSymbolTableRecord
100
AcDbLinetypeTableRecord
2
BYBLOCK
70
0
0
LTYPE
5
15
100
AcDbSymbolTableRecord
100
AcDbLinetypeTableRecord
2
BYLAYER
70
0
0
ENDTAB
0
TABLE
2
LAYER
5
2
100
AcDbSymbolTable
70
2
0
LAYER
5
50
100
AcDbSymbolTableRecord
100
AcDbLayerTableRecord
2
0
70
0
6
CONTINUOUS
0
ENDTAB
0
TABLE
2
STYLE
5
3
100
AcDbSymbolTable
70
1
0
STYLE
5
11
100
AcDbSymbolTableRecord
100
AcDbTextStyleTableRecord
2
STANDARD
70
0
0
ENDTAB
0
TABLE
2
VIEW
5
6
100
AcDbSymbolTable
70
0
0
ENDTAB
0
TABLE
2
UCS
5
7
100
AcDbSymbolTable
70
0
0
ENDTAB
0
TABLE
2
APPID
5
9
100
AcDbSymbolTable
70
2
0
APPID
5
12
100
AcDbSymbolTableRecord
100
AcDbRegAppTableRecord
2
ACAD
70
0
0
ENDTAB
0
TABLE
2
DIMSTYLE
5
A
100
AcDbSymbolTable
70
1
0
ENDTAB
0
TABLE
2
BLOCK_RECORD
5
1
100
AcDbSymbolTable
70
1
0
BLOCK_RECORD
5
1F
100
AcDbSymbolTableRecord
100
AcDbBlockTableRecord
2
*MODEL_SPACE
0
BLOCK_RECORD
5
1B
100
AcDbSymbolTableRecord
100
AcDbBlockTableRecord
2
*PAPER_SPACE
0
ENDTAB
0
ENDSEC
0
SECTION
2
BLOCKS
0
BLOCK
5
20
100
AcDbEntity
100
AcDbBlockBegin
2
*MODEL_SPACE
0
ENDBLK
5
21
100
AcDbEntity
100
AcDbBlockEnd
0
BLOCK
5
1C
100
AcDbEntity
100
AcDbBlockBegin
2
*PAPER_SPACE
0
ENDBLK
5
1D
100
AcDbEntity
100
AcDbBlockEnd
0
ENDSEC
0
SECTION
2
ENTITIES
0
LWPOLYLINE
5
100
100
AcDbEntity
8
0
100
AcDbPolyline
90
4
70
1
43
0.0
10
-100.00803353811689
20
25.662935086795823
42
-0.96143372076587796
10
-95.26537336771483
20
24.091775059644451
42
0.14121975757418059
10
-95.265373363128433
20
-24.091775075559141
42
-0.96143372074118816
10
-100.00803353191475
20
-25.662935103312186
42
-0.18156825973823265
0
LINE
5
101
100
AcDbEntity
8
0
100
AcDbLine
10
-46.503730283719335
20
72.988248265114152
30
0
11
-47.493998352377886
21
72.849075164168823
31
0
0
ARC
5
102
100
AcDbEntity
8
0
100
AcDbCircle
10
-46.503730283719335
20
72.988248265114152
30
0
40
0.9999999999157414
210
0
220
0
230
1
100
AcDbArc
50
97.999999999512227
51
187.99999999982575
0
ARC
5
103
100
AcDbEntity
8
0
100
AcDbCircle
10
-46.851663036072893
20
75.463918436789456
30
0
40
1.4999999999008908
210
-0
220
0
230
1
100
AcDbArc
50
-82.000000000488171
51
97.999999999511928
0
ARC
5
104
100
AcDbEntity
8
0
100
AcDbCircle
10
-46.503730283719335
20
72.988248265114152
30
0
40
3.9999999997175233
210
0
220
0
230
1
100
AcDbArc
50
97.999999999511971
51
187.99999999959718
0
LINE
5
105
100
AcDbEntity
8
0
100
AcDbLine
10
-50.464802558409794
20
72.431555861341053
30
0
11
-59.377215177352113
21
71.178997952740104
31
0
0
ARC
5
106
100
AcDbEntity
8
0
100
AcDbCircle
10
-52.41856012985032
20
21.665594516172476
30
0
40
49.999999999424283
210
0
220
0
230
1
100
AcDbArc
50
97.999999999512426
51
133.76470310523274
0
ARC
5
107
100
AcDbEntity
8
0
100
AcDbCircle
10
-31.667608000000218
20
-2.6645352591003757e-14
30
0
40
79.999999999999872
210
0
220
0
230
1
100
AcDbArc
50
133.7647031052326
51
150.71620190671672
0
ARC
5
108
100
AcDbEntity
8
0
100
AcDbCircle
10
-100.94964030275504
20
40.000000000000085
30
0
40
0.99999999997077005
210
0
220
0
230
1
100
AcDbArc
50
185.00000000013239
51
240.3581009533568
0
ARC
5
109
100
AcDbEntity
8
0
100
AcDbCircle
10
-103.44012704792488
20
39.78211064313227
30
0
40
1.4999999999698059
210
0
220
-0
230
1
100
AcDbArc
50
5.0000000000592557
51
185.00000000007239
0
ARC
5
110
100
AcDbEntity
8
0
100
AcDbCircle
10
-100.94964030275504
20
40.000000000000085
30
0
40
3.9999999999103757
210
0
220
0
230
1
100
AcDbArc
50
185.00000000008245
51
241.43254373753419
0
ARC
5
111
100
AcDbEntity
8
0
100
AcDbCircle
10
-31.667608000000218
20
-2.6645352591003757e-14
30
0
40
79.999999999999815
210
0
220
0
230
1
100
AcDbArc
50
152.86508747506826
51
207.13491252487449
0
ARC
5
112
100
AcDbEntity
8
0
100
AcDbCircle
10
-100.94964030275513
20
-39.999999999999936
30
0
40
3.9999999999894946
210
0
220
0
230
1
100
AcDbArc
50
118.56745626243701
51
175.00000000004817
0
ARC
5
113
100
AcDbEntity
8
0
100
AcDbCircle
10
-103.44012704797993
20
-39.782110643133301
30
0
40
1.4999999999942393
210
0
220
0
230
1
100
AcDbArc
50
175.00000000004803
51
355.00000000004752
0
ARC
5
114
100
AcDbEntity
8
0
100
AcDbCircle
10
-100.94964030275513
20
-39.999999999999936
30
0
40
1.000000000000993
210
0
220
0
230
1
100
AcDbArc
50
119.64189904509459
51
175.00000000004931
0
ARC
5
115
100
AcDbEntity
8
0
100
AcDbCircle
10
-31.667608000000218
20
-2.6645352591003757e-14
30
0
40
79.999999999972985
210
0
220
0
230
1
100
AcDbArc
50
209.28379809326117
51
226.23526583054016
0
ARC
5
116
100
AcDbEntity
8
0
100
AcDbCircle
10
-52.418562632436334
20
-21.665599673155679
30
0
40
49.999994544094619
210
0
220
0
230
1
100
AcDbArc
50
226.2352451754808
51
262.00000000002308
0
LINE
5
117
100
AcDbEntity
8
0
100
AcDbLine
10
-59.377216921101578
20
-71.178997707408328
30
0
11
-50.46480430242849
21
-72.4315556160565
31
0
0
ARC
5
118
100
AcDbEntity
8
0
100
AcDbCircle
10
-46.50373202009979
20
-72.988248020951289
30
0
40
4.0000000074375359
210
0
220
0
230
1
100
AcDbArc
50
171.99999999971908
51
261.99999999998772
0
ARC
5
119
100
AcDbEntity
8
0
100
AcDbCircle
10
-46.851664773016353
20
-75.463918196494873
30
0
40
1.5000000037119117
210
0
220
0
230
1
100
AcDbArc
50
-98.000000000113999
51
81.999999999885574
0
ARC
5
120
100
AcDbEntity
8
0
100
AcDbCircle
10
-46.50373202009979
20
-72.988248020951289
30
0
40
1.000000000015475
210
0
220
0
230
1
100
AcDbArc
50
171.99999999889789
51
262.00000000029354
0
LINE
5
121
100
AcDbEntity
8
0
100
AcDbLine
10
-47.494000088854008
20
-72.849074919970022
30
0
11
-46.50373202009979
21
-72.988248020951289
31
0
0
ARC
5
122
100
AcDbEntity
8
0
100
AcDbCircle
10
-46.225385818141582
20
-71.00771188347349
30
0
40
2.0000000000000142
210
0
220
0
230
1
100
AcDbArc
50
-98.000000001101512
51
117.37418706680485
0
ARC
5
123
100
AcDbEntity
8
0
100
AcDbCircle
10
-49.44398413050596
20
-64.791553511637176
30
0
40
5.0000000000075842
210
0
220
0
230
1
100
AcDbArc
50
239.75590042024689
51
297.37418706680523
0
ARC
5
124
100
AcDbEntity
8
0
100
AcDbCircle
10
-11.667608000000005
20
1.2271511360031369e-15
30
0
40
75.000000000016229
210
0
220
0
230
1
100
AcDbArc
50
193.43004998543435
51
248.49741241152952
0
ARC
5
125
100
AcDbEntity
8
0
100
AcDbCircle
10
-46.489216352142307
20
-88.388096437221435
30
0
40
20.000000000131966
210
0
220
-0
230
1
100
AcDbArc
50
51.794597798469979
51
68.49741241152951
0
ARC
5
126
100
AcDbEntity
8
0
100
AcDbCircle
10
-24.842329269549897
20
-60.885146056524604
30
0
40
15.000000000004865
210
0
220
0
230
1
100
AcDbArc
50
231.7945977984696
51
261.99999999997596
0
LINE
5
127
100
AcDbEntity
8
0
100
AcDbLine
10
-26.929925783957781
20
-75.739167087652106
30
0
11
46.349911302914094
21
-86.037976558727678
31
0
0
ARC
5
128
100
AcDbEntity
8
0
100
AcDbCircle
10
45.93239200002926
20
-89.008780764976308
30
0
40
3.0000000000243716
210
-0
220
0
230
1
100
AcDbArc
50
-38.000000000000689
51
81.99999999997587
0
ARC
5
129
100
AcDbEntity
8
0
100
AcDbCircle
10
50.266451144882758
20
-92.394918879280326
30
0
40
2.4999999999965992
210
0
220
0
230
1
100
AcDbArc
50
142.00000000000111
51
321.99999999999795
0
ARC
5
130
100
AcDbEntity
8
0
100
AcDbCircle
10
45.93239200002926
20
-89.008780764976308
30
0
40
8.0000000000175735
210
-0
220
0
230
1
100
AcDbArc
50
-38.000000000000533
51
81.999999999999901
0
LINE
5
131
100
AcDbEntity
8
0
100
AcDbLine
10
47.045776807712244
20
-81.086636215026346
30
0
11
-10.264016195804846
21
-73.032270069690796
31
0
0
ARC
5
132
100
AcDbEntity
8
0
100
AcDbCircle
10
0
20
0
30
0
40
73.749999999999986
210
0
220
0
230
1
100
AcDbArc
50
98
51
262
0
LINE
5
133
100
AcDbEntity
8
0
100
AcDbLine
10
-10.264016195804809
20
73.032270069690796
30
0
11
47.045776807712244
21
81.086636215026431
31
0
0
ARC
5
134
100
AcDbEntity
8
0
100
AcDbCircle
10
45.932392000033815
20
89.008780764943992
30
0
40
7.9999999999848503
210
-0
220
0
230
1
100
AcDbArc
50
-81.999999999999886
51
38.000000000001336
0
ARC
5
135
100
AcDbEntity
8
0
100
AcDbCircle
10
50.266451144877678
20
92.394918879240464
30
0
40
2.4999999999761298
210
0
220
-0
230
1
100
AcDbArc
50
38.000000000004881
51
218.00000000000492
0
ARC
5
136
100
AcDbEntity
8
0
100
AcDbCircle
10
45.932392000033815
20
89.008780764943992
30
0
40
3.0000000000327676
210
0
220
0
230
1
100
AcDbArc
50
-81.999999999996177
51
37.999999999995417
0
LINE
5
137
100
AcDbEntity
8
0
100
AcDbLine
10
46.34991130291877
20
86.037976558686864
30
0
11
-26.929925783975381
21
75.739167087634215
31
0
0
ARC
5
138
100
AcDbEntity
8
0
100
AcDbCircle
10
-24.842329269573348
20
60.885146056510763
30
0
40
15.000000000000052
210
0
220
0
230
1
100
AcDbArc
50
98.000000000004022
51
128.20540220152105
0
ARC
5
139
100
AcDbEntity
8
0
100
AcDbCircle
10
-46.489216352050988
20
88.388096437070928
30
0
40
19.999999999958401
210
0
220
0
230
1
100
AcDbArc
50
291.5025875884528
51
308.20540220152083
0
ARC
5
140
100
AcDbEntity
8
0
100
AcDbCircle
10
-11.667608000000005
20
1.2271511360031369e-15
30
0
40
75.00000000000253
210
0
220
0
230
1
100
AcDbArc
50
111.50258758845239
51
166.56995001475559
0
ARC
5
141
100
AcDbEntity
8
0
100
AcDbCircle
10
-11.667608000000005
20
1.2271511360031369e-15
30
0
40
80.000000000039279
210
0
220
0
230
1
100
AcDbArc
50
193.43004998543714
51
239.75590042023512
0
ARC
5
142
100
AcDbEntity
8
0
100
AcDbCircle
10
-49.443983092015273
20
64.79155411713235
30
0
40
5.0000000000001146
210
0
220
-0
230
1
100
AcDbArc
50
62.62580650095726
51
120.24409866140229
0
ARC
5
143
100
AcDbEntity
8
0
100
AcDbCircle
10
-46.225384081805231
20
71.007712127630185
30
0
40
1.9999999999999807
210
0
220
0
230
1
100
AcDbArc
50
-117.37419349904302
51
97.999999999825746
0
ARC
5
144
100
AcDbEntity
8
0
100
AcDbCircle
10
-87.048308447885233
20
-18.000000000000004
30
0
40
2.5000000000728235
210
0
220
-0
230
1
100
AcDbArc
50
13.430049985402228
51
193.43004998555634
0
ARC
5
145
100
AcDbEntity
8
0
100
AcDbCircle
10
-87.048308447884168
20
17.999999999736872
30
0
40
2.5000000000127205
210
0
220
0
230
1
100
AcDbArc
50
166.56995001475886
51
346.56995001475957
0
ARC
5
146
100
AcDbEntity
8
0
100
AcDbCircle
10
-11.667608000000005
20
1.2271511360031369e-15
30
0
40
80.000000000039591
210
0
220
0
230
1
100
AcDbArc
50
120.2440986614025
51
166.56995001475585
0
ENDSEC
0
SECTION
2
OBJECTS
0
DICTIONARY
5
C
100
AcDbDictionary
3
ACAD_GROUP
350
D
3
ACAD_MLINESTYLE
350
17
0
DICTIONARY
5
D
100
AcDbDictionary
0
DICTIONARY
5
1A
330
C
100
AcDbDictionary
0
DICTIONARY
5
17
100
AcDbDictionary
0
ENDSEC
0
EOF
