<svg width="448" height="48" viewBox="0 0 448 48" fill="none" xmlns="http://www.w3.org/2000/svg">
<path d="M210.121 47.3633L225.734 1.45312H229.262L213.648 47.3633H210.121Z" fill="#DDDDDD"/>
<path d="M70.6289 44V17.1211L70.3828 18.7891L61.2773 44H59.418L50.2305 18.7891L50.0117 17.1211V44H46.4844V4.78906H48.3164L60.2109 36.9453L60.3203 38.3945L60.4297 36.9453L72.2969 4.78906H74.1562V44H70.6289Z" fill="#181818"/>
<path d="M104.617 34.9219C104.617 36.2526 104.362 37.5013 103.852 38.668C103.359 39.8346 102.676 40.8555 101.801 41.7305C100.926 42.6055 99.9049 43.2982 98.7383 43.8086C97.5716 44.3008 96.3229 44.5469 94.9922 44.5469H92.2031C90.8724 44.5469 89.6146 44.3008 88.4297 43.8086C87.263 43.2982 86.2422 42.6055 85.3672 41.7305C84.4922 40.8555 83.7995 39.8346 83.2891 38.668C82.7969 37.5013 82.5508 36.2526 82.5508 34.9219V4.78906H86.0781V34.9219C86.0781 35.7969 86.2422 36.6172 86.5703 37.3828C86.8984 38.1302 87.3451 38.7956 87.9102 39.3789C88.4935 39.944 89.1589 40.3906 89.9062 40.7188C90.6719 41.0469 91.4922 41.2109 92.3672 41.2109H94.8281C95.7031 41.2109 96.5143 41.0469 97.2617 40.7188C98.0273 40.3906 98.6927 39.944 99.2578 39.3789C99.8229 38.7956 100.27 38.1302 100.598 37.3828C100.926 36.6172 101.09 35.7969 101.09 34.9219V4.78906H104.617V34.9219Z" fill="#181818"/>
<path d="M131.469 44L120.832 27.2656H115.992V44H112.465V4.78906H124.906C126.237 4.78906 127.486 5.04427 128.652 5.55469C129.819 6.04688 130.84 6.73047 131.715 7.60547C132.59 8.48047 133.273 9.51042 133.766 10.6953C134.276 11.862 134.531 13.1107 134.531 14.4414V17.6133C134.531 18.944 134.276 20.2018 133.766 21.3867C133.273 22.5534 132.59 23.5742 131.715 24.4492C130.84 25.3242 129.819 26.0169 128.652 26.5273C127.486 27.0195 126.237 27.2656 124.906 27.2656L135.543 44H131.469ZM131.004 14.4414C131.004 13.5664 130.84 12.7552 130.512 12.0078C130.184 11.2422 129.737 10.5768 129.172 10.0117C128.607 9.42839 127.941 8.97266 127.176 8.64453C126.428 8.31641 125.617 8.15234 124.742 8.15234H115.992V23.9023H124.742C125.617 23.9023 126.428 23.7383 127.176 23.4102C127.941 23.082 128.607 22.6354 129.172 22.0703C129.737 21.487 130.184 20.8216 130.512 20.0742C130.84 19.3086 131.004 18.4883 131.004 17.6133V14.4414Z" fill="#181818"/>
<path d="M163.789 34.9219C163.789 36.2526 163.534 37.5013 163.023 38.668C162.531 39.8346 161.848 40.8555 160.973 41.7305C160.098 42.6055 159.077 43.2982 157.91 43.8086C156.743 44.3008 155.495 44.5469 154.164 44.5469H151.375C150.044 44.5469 148.786 44.3008 147.602 43.8086C146.435 43.2982 145.414 42.6055 144.539 41.7305C143.664 40.8555 142.971 39.8346 142.461 38.668C141.969 37.5013 141.723 36.2526 141.723 34.9219V13.8672C141.723 12.5365 141.969 11.2878 142.461 10.1211C142.971 8.95443 143.664 7.93359 144.539 7.05859C145.414 6.18359 146.435 5.5 147.602 5.00781C148.786 4.4974 150.044 4.24219 151.375 4.24219H154.164C155.495 4.24219 156.743 4.4974 157.91 5.00781C159.077 5.5 160.098 6.18359 160.973 7.05859C161.848 7.93359 162.531 8.95443 163.023 10.1211C163.534 11.2878 163.789 12.5365 163.789 13.8672V15.4531L160.262 16V13.8672C160.262 12.9922 160.098 12.181 159.77 11.4336C159.441 10.668 158.995 10.0026 158.43 9.4375C157.865 8.8724 157.199 8.42578 156.434 8.09766C155.686 7.76953 154.875 7.60547 154 7.60547H151.539C150.664 7.60547 149.844 7.76953 149.078 8.09766C148.331 8.42578 147.665 8.8724 147.082 9.4375C146.517 10.0026 146.07 10.668 145.742 11.4336C145.414 12.181 145.25 12.9922 145.25 13.8672V34.9219C145.25 35.7969 145.414 36.6172 145.742 37.3828C146.07 38.1302 146.517 38.7956 147.082 39.3789C147.665 39.944 148.331 40.3906 149.078 40.7188C149.844 41.0469 150.664 41.2109 151.539 41.2109H154C154.875 41.2109 155.686 41.0469 156.434 40.7188C157.199 40.3906 157.865 39.944 158.43 39.3789C158.995 38.7956 159.441 38.1302 159.77 37.3828C160.098 36.6172 160.262 35.7969 160.262 34.9219V32.7891L163.789 33.3633V34.9219Z" fill="#181818"/>
<path d="M171.664 44V4.78906H175.191V44H171.664Z" fill="#181818"/>
<path d="M198.898 34.8672H186.484L183.914 44H180.25L191.734 4.78906H193.594L205.133 44H201.496L198.898 34.8672ZM187.441 31.5039H197.969L192.801 13.4297L192.691 11.9805L192.582 13.4297L187.441 31.5039Z" fill="#181818"/>
<path d="M1 43.7803L8.44718 20.3272H23.5L31 43.7803H21.1232V33.6859L21.0704 33.1837L21.0176 32.6815L20.8591 32.2295L20.7006 31.7775L20.4894 31.3758L20.2253 30.974L19.9613 30.6225L19.6443 30.2709L19.2746 29.9194L18.8521 29.6683L18.4296 29.4171L18.007 29.2163L17.5317 29.0154L17.0563 28.9149L16.5281 28.8647L15.9999 28.8145H15.7359L15.4718 28.8647H15.2606L14.9965 28.9149L14.4683 29.0154L14.0457 29.2163L13.5704 29.4171L13.1479 29.6683L12.7782 29.9194L12.4084 30.2709L12.0916 30.6225L11.7747 30.974L11.5105 31.3758L11.2993 31.7775L11.1409 32.2295L11.0352 32.6815L10.9824 32.9326L10.9296 33.1837V33.4348V33.6859V43.7803H1" fill="#A3A3A3"/>
<path d="M1 43.7803L8.44718 20.3272H23.5L31 43.7803H21.1232V33.6859L21.0704 33.1837L21.0176 32.6815L20.8591 32.2295L20.7006 31.7775L20.4894 31.3758L20.2253 30.974L19.9613 30.6225L19.6443 30.2709L19.2746 29.9194L18.8521 29.6683L18.4296 29.4171L18.007 29.2163L17.5317 29.0154L17.0563 28.9149L16.5281 28.8647L15.9999 28.8145H15.7359L15.4718 28.8647H15.2606L14.9965 28.9149L14.4683 29.0154L14.0457 29.2163L13.5704 29.4171L13.1479 29.6683L12.7782 29.9194L12.4084 30.2709L12.0916 30.6225L11.7747 30.974L11.5105 31.3758L11.2993 31.7775L11.1409 32.2295L11.0352 32.6815L10.9824 32.9326L10.9296 33.1837V33.4348V33.6859V43.7803H1" stroke="#626262"/>
<path d="M9.66197 11.0364V15.5061H11.669V7.06898H6.6514V11.0364H9.66197" fill="#A3A3A3"/>
<path d="M9.66197 11.0364V15.5061H11.669V7.06898H6.6514V11.0364H9.66197" stroke="#626262"/>
<path d="M13.9401 15.506V11.0364H18.1127V15.506H18.4824V4.20637H13.412V15.506H13.9401Z" fill="#A3A3A3" stroke="#626262"/>
<path d="M22.3908 15.5061V11.0364H25.4014V7.06898H20.2782V15.5061H22.3908" fill="#A3A3A3"/>
<path d="M22.3908 15.5061V11.0364H25.4014V7.06898H20.2782V15.5061H22.3908" stroke="#626262"/>
<path d="M9.66198 11.0364V15.506H13.9401V11.0364H18.1127V15.506H22.3908V11.0364H26.5105V18.7704H5.48951V11.0364H9.66198Z" fill="#A3A3A3" stroke="#626262"/>
<path d="M5.43658 6.62468H12.8841V3.96301H5.43658V6.62468Z" fill="#A3A3A3" stroke="#626262"/>
<path d="M12.25 3.76212H19.7499V1H12.25V3.76212Z" fill="#A3A3A3" stroke="#626262"/>
<path d="M19.1159 6.62468H26.6164V3.96301H19.1159V6.62468Z" fill="#A3A3A3" stroke="#626262"/>
<path d="M254.977 34.9219C254.977 36.2526 254.703 37.5013 254.156 38.668C253.628 39.8346 252.908 40.8555 251.996 41.7305C251.103 42.6055 250.055 43.2982 248.852 43.8086C247.667 44.3008 246.409 44.5469 245.078 44.5469H242.262C240.931 44.5469 239.664 44.3008 238.461 43.8086C237.276 43.2982 236.228 42.6055 235.316 41.7305C234.423 40.8555 233.703 39.8346 233.156 38.668C232.628 37.5013 232.363 36.2526 232.363 34.9219V33.3633L235.891 32.7891V34.9219C235.891 35.7969 236.064 36.6172 236.41 37.3828C236.775 38.1302 237.258 38.7956 237.859 39.3789C238.461 39.944 239.154 40.3906 239.938 40.7188C240.74 41.0469 241.578 41.2109 242.453 41.2109H244.914C245.789 41.2109 246.618 41.0469 247.402 40.7188C248.186 40.3906 248.879 39.944 249.48 39.3789C250.082 38.7956 250.556 38.1302 250.902 37.3828C251.267 36.6172 251.449 35.7969 251.449 34.9219V33.7461C251.449 32.3971 251.185 31.276 250.656 30.3828C250.128 29.4896 249.426 28.7331 248.551 28.1133C247.676 27.4753 246.682 26.9375 245.57 26.5C244.477 26.0625 243.346 25.625 242.18 25.1875C241.013 24.75 239.874 24.2669 238.762 23.7383C237.668 23.2096 236.684 22.5534 235.809 21.7695C234.934 20.9674 234.232 19.9922 233.703 18.8438C233.174 17.6953 232.91 16.2826 232.91 14.6055V13.8672C232.91 12.5365 233.156 11.2878 233.648 10.1211C234.159 8.95443 234.852 7.93359 235.727 7.05859C236.602 6.18359 237.622 5.5 238.789 5.00781C239.974 4.4974 241.232 4.24219 242.562 4.24219H245.078C246.409 4.24219 247.658 4.4974 248.824 5.00781C249.991 5.5 251.012 6.18359 251.887 7.05859C252.762 7.93359 253.445 8.95443 253.938 10.1211C254.448 11.2878 254.703 12.5365 254.703 13.8672V14.8789L251.176 15.4531V13.8672C251.176 12.9922 251.012 12.181 250.684 11.4336C250.355 10.668 249.909 10.0026 249.344 9.4375C248.779 8.8724 248.113 8.42578 247.348 8.09766C246.6 7.76953 245.789 7.60547 244.914 7.60547H242.727C241.852 7.60547 241.031 7.76953 240.266 8.09766C239.518 8.42578 238.853 8.8724 238.27 9.4375C237.704 10.0026 237.258 10.668 236.93 11.4336C236.602 12.181 236.438 12.9922 236.438 13.8672V14.6055C236.438 15.8633 236.702 16.9206 237.23 17.7773C237.759 18.6341 238.461 19.3724 239.336 19.9922C240.211 20.5938 241.195 21.1224 242.289 21.5781C243.401 22.0156 244.54 22.4714 245.707 22.9453C246.874 23.401 248.004 23.9115 249.098 24.4766C250.21 25.0234 251.203 25.707 252.078 26.5273C252.953 27.3294 253.655 28.3138 254.184 29.4805C254.712 30.6471 254.977 32.069 254.977 33.7461V34.9219Z" fill="#454545"/>
<path d="M284.07 34.9219C284.07 36.2526 283.815 37.5013 283.305 38.668C282.812 39.8346 282.129 40.8555 281.254 41.7305C280.379 42.6055 279.358 43.2982 278.191 43.8086C277.025 44.3008 275.776 44.5469 274.445 44.5469H271.656C270.326 44.5469 269.068 44.3008 267.883 43.8086C266.716 43.2982 265.695 42.6055 264.82 41.7305C263.945 40.8555 263.253 39.8346 262.742 38.668C262.25 37.5013 262.004 36.2526 262.004 34.9219V13.8672C262.004 12.5365 262.25 11.2878 262.742 10.1211C263.253 8.95443 263.945 7.93359 264.82 7.05859C265.695 6.18359 266.716 5.5 267.883 5.00781C269.068 4.4974 270.326 4.24219 271.656 4.24219H274.445C275.776 4.24219 277.025 4.4974 278.191 5.00781C279.358 5.5 280.379 6.18359 281.254 7.05859C282.129 7.93359 282.812 8.95443 283.305 10.1211C283.815 11.2878 284.07 12.5365 284.07 13.8672V34.9219ZM280.543 13.8672C280.543 12.9922 280.379 12.181 280.051 11.4336C279.723 10.668 279.276 10.0026 278.711 9.4375C278.146 8.8724 277.48 8.42578 276.715 8.09766C275.967 7.76953 275.156 7.60547 274.281 7.60547H271.82C270.945 7.60547 270.125 7.76953 269.359 8.09766C268.612 8.42578 267.947 8.8724 267.363 9.4375C266.798 10.0026 266.352 10.668 266.023 11.4336C265.695 12.181 265.531 12.9922 265.531 13.8672V34.9219C265.531 35.7969 265.695 36.6172 266.023 37.3828C266.352 38.1302 266.798 38.7956 267.363 39.3789C267.947 39.944 268.612 40.3906 269.359 40.7188C270.125 41.0469 270.945 41.2109 271.82 41.2109H274.281C275.156 41.2109 275.967 41.0469 276.715 40.7188C277.48 40.3906 278.146 39.944 278.711 39.3789C279.276 38.7956 279.723 38.1302 280.051 37.3828C280.379 36.6172 280.543 35.7969 280.543 34.9219V13.8672Z" fill="#454545"/>
<path d="M291.918 44V4.78906H295.445V40.6367H310.457V44H291.918Z" fill="#454545"/>
<path d="M316.062 44V4.78906H319.59V44H316.062Z" fill="#454545"/>
<path d="M350.652 34.375C350.652 35.7057 350.397 36.9544 349.887 38.1211C349.395 39.2878 348.711 40.3086 347.836 41.1836C346.961 42.0586 345.931 42.7513 344.746 43.2617C343.579 43.7539 342.331 44 341 44H328.586V4.78906H341C342.331 4.78906 343.579 5.04427 344.746 5.55469C345.931 6.04688 346.961 6.73047 347.836 7.60547C348.711 8.48047 349.395 9.51042 349.887 10.6953C350.397 11.862 350.652 13.1107 350.652 14.4414V34.375ZM347.125 14.4414C347.125 13.5664 346.961 12.7552 346.633 12.0078C346.305 11.2422 345.849 10.5768 345.266 10.0117C344.701 9.42839 344.035 8.97266 343.27 8.64453C342.522 8.31641 341.711 8.15234 340.836 8.15234H332.113V40.6367H340.836C341.711 40.6367 342.522 40.4727 343.27 40.1445C344.035 39.8164 344.701 39.3698 345.266 38.8047C345.849 38.2396 346.305 37.5833 346.633 36.8359C346.961 36.0703 347.125 35.25 347.125 34.375V14.4414Z" fill="#454545"/>
<path d="M373.758 34.8672H361.344L358.773 44H355.109L366.594 4.78906H368.453L379.992 44H376.355L373.758 34.8672ZM362.301 31.5039H372.828L367.66 13.4297L367.551 11.9805L367.441 13.4297L362.301 31.5039Z" fill="#454545"/>
<path d="M403.453 44L392.816 27.2656H387.977V44H384.449V4.78906H396.891C398.221 4.78906 399.47 5.04427 400.637 5.55469C401.803 6.04688 402.824 6.73047 403.699 7.60547C404.574 8.48047 405.258 9.51042 405.75 10.6953C406.26 11.862 406.516 13.1107 406.516 14.4414V17.6133C406.516 18.944 406.26 20.2018 405.75 21.3867C405.258 22.5534 404.574 23.5742 403.699 24.4492C402.824 25.3242 401.803 26.0169 400.637 26.5273C399.47 27.0195 398.221 27.2656 396.891 27.2656L407.527 44H403.453ZM402.988 14.4414C402.988 13.5664 402.824 12.7552 402.496 12.0078C402.168 11.2422 401.721 10.5768 401.156 10.0117C400.591 9.42839 399.926 8.97266 399.16 8.64453C398.413 8.31641 397.602 8.15234 396.727 8.15234H387.977V23.9023H396.727C397.602 23.9023 398.413 23.7383 399.16 23.4102C399.926 23.082 400.591 22.6354 401.156 22.0703C401.721 21.487 402.168 20.8216 402.496 20.0742C402.824 19.3086 402.988 18.4883 402.988 17.6133V14.4414Z" fill="#454545"/>
<path d="M414.281 44V4.78906H417.809V44H414.281Z" fill="#454545"/>
<path d="M441.516 34.8672H429.102L426.531 44H422.867L434.352 4.78906H436.211L447.75 44H444.113L441.516 34.8672ZM430.059 31.5039H440.586L435.418 13.4297L435.309 11.9805L435.199 13.4297L430.059 31.5039Z" fill="#454545"/>
</svg>
