<svg width="1061" height="111" viewBox="0 0 1061 111" fill="none" xmlns="http://www.w3.org/2000/svg">
<path d="M496.648 110.11L533.728 1.07614H542.106L505.025 110.11H496.648Z" fill="#E2E8F0"/>
<path d="M165.364 102.122V38.2865L164.779 42.2478L143.154 102.122H138.739L116.919 42.2478L116.399 38.2865V102.122H108.022V8.99876H112.373L140.622 85.3676L140.882 88.8094L141.141 85.3676L169.325 8.99876H173.741V102.122H165.364Z" fill="#1D4044"/>
<path d="M246.084 80.5621C246.084 83.7225 245.477 86.688 244.265 89.4588C243.096 92.2295 241.473 94.654 239.395 96.732C237.317 98.8101 234.892 100.455 232.122 101.667C229.351 102.836 226.385 103.421 223.225 103.421H216.601C213.441 103.421 210.453 102.836 207.639 101.667C204.869 100.455 202.444 98.8101 200.366 96.732C198.288 94.654 196.643 92.2295 195.431 89.4588C194.262 86.688 193.677 83.7225 193.677 80.5621V8.99876H202.055V80.5621C202.055 82.6401 202.444 84.5883 203.224 86.4066C204.003 88.1816 205.063 89.7618 206.406 91.1472C207.791 92.4893 209.371 93.55 211.146 94.3293C212.964 95.1085 214.913 95.4982 216.991 95.4982H222.835C224.913 95.4982 226.84 95.1085 228.615 94.3293C230.433 93.55 232.013 92.4893 233.355 91.1472C234.698 89.7618 235.758 88.1816 236.537 86.4066C237.317 84.5883 237.706 82.6401 237.706 80.5621V8.99876H246.084V80.5621Z" fill="#1D4044"/>
<path d="M309.854 102.122L284.593 62.379H273.098V102.122H264.721V8.99876H294.269C297.429 8.99876 300.395 9.60486 303.165 10.8171C305.936 11.986 308.361 13.6095 310.439 15.6875C312.517 17.7656 314.14 20.2116 315.309 23.0257C316.521 25.7964 317.127 28.762 317.127 31.9224V39.4554C317.127 42.6158 316.521 45.603 315.309 48.417C314.14 51.1878 312.517 53.6122 310.439 55.6903C308.361 57.7683 305.936 59.4135 303.165 60.6257C300.395 61.7946 297.429 62.379 294.269 62.379L319.53 102.122H309.854ZM308.75 31.9224C308.75 29.8443 308.361 27.9178 307.581 26.1428C306.802 24.3245 305.741 22.7443 304.399 21.4022C303.057 20.0168 301.477 18.9345 299.659 18.1552C297.884 17.376 295.957 16.9863 293.879 16.9863H273.098V54.3915H293.879C295.957 54.3915 297.884 54.0018 299.659 53.2226C301.477 52.4433 303.057 51.3826 304.399 50.0405C305.741 48.6551 306.802 47.0749 307.581 45.2999C308.361 43.4816 308.75 41.5334 308.75 39.4554V31.9224Z" fill="#1D4044"/>
<path d="M386.613 80.5621C386.613 83.7225 386.007 86.688 384.794 89.4588C383.625 92.2295 382.002 94.654 379.924 96.732C377.846 98.8101 375.421 100.455 372.651 101.667C369.88 102.836 366.914 103.421 363.754 103.421H357.13C353.97 103.421 350.983 102.836 348.168 101.667C345.398 100.455 342.973 98.8101 340.895 96.732C338.817 94.654 337.172 92.2295 335.96 89.4588C334.791 86.688 334.206 83.7225 334.206 80.5621V30.5587C334.206 27.3983 334.791 24.4327 335.96 21.662C337.172 18.8912 338.817 16.4668 340.895 14.3887C342.973 12.3107 345.398 10.6872 348.168 9.51827C350.983 8.30607 353.97 7.69997 357.13 7.69997H363.754C366.914 7.69997 369.88 8.30607 372.651 9.51827C375.421 10.6872 377.846 12.3107 379.924 14.3887C382.002 16.4668 383.625 18.8912 384.794 21.662C386.007 24.4327 386.613 27.3983 386.613 30.5587V34.3252L378.235 35.6239V30.5587C378.235 28.4806 377.846 26.5541 377.067 24.7791C376.287 22.9607 375.227 21.3806 373.885 20.0385C372.542 18.6964 370.962 17.6357 369.144 16.8564C367.369 16.0772 365.442 15.6875 363.364 15.6875H357.52C355.442 15.6875 353.494 16.0772 351.675 16.8564C349.9 17.6357 348.32 18.6964 346.935 20.0385C345.593 21.3806 344.532 22.9607 343.753 24.7791C342.973 26.5541 342.584 28.4806 342.584 30.5587V80.5621C342.584 82.6401 342.973 84.5883 343.753 86.4066C344.532 88.1816 345.593 89.7618 346.935 91.1472C348.32 92.4893 349.9 93.55 351.675 94.3293C353.494 95.1085 355.442 95.4982 357.52 95.4982H363.364C365.442 95.4982 367.369 95.1085 369.144 94.3293C370.962 93.55 372.542 92.4893 373.885 91.1472C375.227 89.7618 376.287 88.1816 377.067 86.4066C377.846 84.5883 378.235 82.6401 378.235 80.5621V75.4968L386.613 76.8605V80.5621Z" fill="#1D4044"/>
<path d="M405.315 102.122V8.99876H413.692V102.122H405.315Z" fill="#1D4044"/>
<path d="M469.995 80.4322H440.512L434.408 102.122H425.706L452.981 8.99876H457.397L484.801 102.122H476.164L469.995 80.4322ZM442.785 72.4446H467.787L455.513 29.5196L455.254 26.0778L454.994 29.5196L442.785 72.4446Z" fill="#1D4044"/>
<path d="M0 101.6L17.6865 45.9008H53.4359L71.2479 101.6H47.7912V77.6268L47.6658 76.434L47.5405 75.2413L47.1641 74.1679L46.7876 73.0945L46.286 72.1403L45.6589 71.1862L45.0317 70.3513L44.2789 69.5164L43.4009 68.6814L42.3976 68.0851L41.3941 67.4887L40.3905 67.0117L39.2616 66.5346L38.1326 66.2961L36.8782 66.1768L35.6238 66.0575H34.9968L34.3695 66.1768H33.8679L33.2407 66.2961L31.9864 66.5346L30.9827 67.0117L29.8538 67.4887L28.8504 68.0851L27.9723 68.6814L27.0943 69.5164L26.3417 70.3513L25.5891 71.1862L24.9617 72.1403L24.4601 73.0945L24.0838 74.1679L23.833 75.2413L23.7074 75.8377L23.5821 76.434V77.0304V77.6268V101.6H0Z" fill="#A0AEC0"/>
<path d="M20.5716 23.8358V34.4509H25.3382V14.4134H13.4217V23.8358H20.5716Z" fill="#A0AEC0"/>
<path d="M30.7319 34.4508V23.8357H40.6415V34.4508H41.5196V7.6149H29.4777V34.4508H30.7319Z" fill="#A0AEC0"/>
<path d="M50.8017 34.4509V23.8358H57.9516V14.4134H45.7843V34.4509H50.8017Z" fill="#A0AEC0"/>
<path d="M20.5716 23.8357V34.4508H30.7319V23.8357H40.6415V34.4508H50.8017V23.8357H60.5858V42.2034H10.6623V23.8357H20.5716Z" fill="#A0AEC0"/>
<path d="M10.5366 13.3582H28.2238V7.03693H10.5366V13.3582Z" fill="#A0AEC0"/>
<path d="M26.718 6.55985H44.5297V0H26.718V6.55985Z" fill="#A0AEC0"/>
<path d="M43.024 13.3582H60.8372V7.03693H43.024V13.3582Z" fill="#A0AEC0"/>
<path d="M603.177 80.5621C603.177 83.7225 602.527 86.688 601.228 89.4588C599.973 92.2295 598.263 94.654 596.098 96.732C593.977 98.8101 591.487 100.455 588.63 101.667C585.816 102.836 582.829 103.421 579.668 103.421H572.98C569.819 103.421 566.81 102.836 563.953 101.667C561.139 100.455 558.65 98.8101 556.485 96.732C554.364 94.654 552.654 92.2295 551.355 89.4588C550.099 86.688 549.472 83.7225 549.472 80.5621V76.8605L557.849 75.4968V80.5621C557.849 82.6401 558.26 84.5883 559.083 86.4066C559.949 88.1816 561.096 89.7618 562.524 91.1472C563.953 92.4893 565.598 93.55 567.46 94.3293C569.365 95.1085 571.356 95.4982 573.434 95.4982H579.279C581.357 95.4982 583.327 95.1085 585.188 94.3293C587.05 93.55 588.695 92.4893 590.124 91.1472C591.552 89.7618 592.678 88.1816 593.501 86.4066C594.366 84.5883 594.799 82.6401 594.799 80.5621V77.7697C594.799 74.566 594.172 71.9035 592.916 69.7821C591.661 67.6608 589.994 65.8641 587.916 64.3921C585.838 62.8769 583.478 61.5997 580.837 60.5607C578.24 59.5217 575.556 58.4827 572.785 57.4436C570.014 56.4046 567.308 55.2573 564.667 54.0018C562.07 52.7463 559.732 51.1878 557.654 49.3262C555.576 47.4213 553.909 45.1051 552.654 42.3777C551.398 39.6502 550.77 36.295 550.77 32.312V30.5587C550.77 27.3983 551.355 24.4327 552.524 21.662C553.736 18.8912 555.381 16.4668 557.459 14.3887C559.537 12.3107 561.962 10.6872 564.732 9.51827C567.546 8.30607 570.534 7.69997 573.694 7.69997H579.668C582.829 7.69997 585.794 8.30607 588.565 9.51827C591.336 10.6872 593.76 12.3107 595.838 14.3887C597.916 16.4668 599.54 18.8912 600.709 21.662C601.921 24.4327 602.527 27.3983 602.527 30.5587V32.9614L594.15 34.3252V30.5587C594.15 28.4806 593.76 26.5541 592.981 24.7791C592.202 22.9607 591.141 21.3806 589.799 20.0385C588.457 18.6964 586.877 17.6357 585.058 16.8564C583.283 16.0772 581.357 15.6875 579.279 15.6875H574.084C572.006 15.6875 570.057 16.0772 568.239 16.8564C566.464 17.6357 564.884 18.6964 563.499 20.0385C562.156 21.3806 561.096 22.9607 560.317 24.7791C559.537 26.5541 559.148 28.4806 559.148 30.5587V32.312C559.148 35.2993 559.775 37.8102 561.031 39.845C562.286 41.8798 563.953 43.6332 566.031 45.1051C568.109 46.5338 570.447 47.7893 573.045 48.8716C575.686 49.9106 578.391 50.993 581.162 52.1186C583.933 53.2009 586.617 54.4131 589.215 55.7552C591.855 57.054 594.215 58.6775 596.293 60.6257C598.371 62.5305 600.038 64.8684 601.293 67.6391C602.549 70.4099 603.177 73.7867 603.177 77.7697V80.5621Z" fill="#718096"/>
<path d="M672.272 80.5621C672.272 83.7225 671.666 86.688 670.454 89.4588C669.285 92.2295 667.661 94.654 665.583 96.732C663.505 98.8101 661.081 100.455 658.31 101.667C655.539 102.836 652.574 103.421 649.414 103.421H642.79C639.629 103.421 636.642 102.836 633.828 101.667C631.057 100.455 628.633 98.8101 626.555 96.732C624.477 94.654 622.832 92.2295 621.619 89.4588C620.45 86.688 619.866 83.7225 619.866 80.5621V30.5587C619.866 27.3983 620.45 24.4327 621.619 21.662C622.832 18.8912 624.477 16.4668 626.555 14.3887C628.633 12.3107 631.057 10.6872 633.828 9.51827C636.642 8.30607 639.629 7.69997 642.79 7.69997H649.414C652.574 7.69997 655.539 8.30607 658.31 9.51827C661.081 10.6872 663.505 12.3107 665.583 14.3887C667.661 16.4668 669.285 18.8912 670.454 21.662C671.666 24.4327 672.272 27.3983 672.272 30.5587V80.5621ZM663.895 30.5587C663.895 28.4806 663.505 26.5541 662.726 24.7791C661.947 22.9607 660.886 21.3806 659.544 20.0385C658.202 18.6964 656.622 17.6357 654.803 16.8564C653.028 16.0772 651.102 15.6875 649.024 15.6875H643.179C641.101 15.6875 639.153 16.0772 637.335 16.8564C635.56 17.6357 633.98 18.6964 632.594 20.0385C631.252 21.3806 630.191 22.9607 629.412 24.7791C628.633 26.5541 628.243 28.4806 628.243 30.5587V80.5621C628.243 82.6401 628.633 84.5883 629.412 86.4066C630.191 88.1816 631.252 89.7618 632.594 91.1472C633.98 92.4893 635.56 93.55 637.335 94.3293C639.153 95.1085 641.101 95.4982 643.179 95.4982H649.024C651.102 95.4982 653.028 95.1085 654.803 94.3293C656.622 93.55 658.202 92.4893 659.544 91.1472C660.886 89.7618 661.947 88.1816 662.726 86.4066C663.505 84.5883 663.895 82.6401 663.895 80.5621V30.5587Z" fill="#718096"/>
<path d="M690.91 102.122V8.99876H699.287V94.1344H734.939V102.122H690.91Z" fill="#718096"/>
<path d="M748.251 102.122V8.99876H756.629V102.122H748.251Z" fill="#718096"/>
<path d="M830.4 79.2633C830.4 82.4237 829.794 85.3893 828.582 88.16C827.413 90.9308 825.789 93.3552 823.711 95.4332C821.633 97.5113 819.187 99.1564 816.373 100.369C813.602 101.538 810.637 102.122 807.476 102.122H777.994V8.99876H807.476C810.637 8.99876 813.602 9.60486 816.373 10.8171C819.187 11.986 821.633 13.6095 823.711 15.6875C825.789 17.7656 827.413 20.2116 828.582 23.0257C829.794 25.7964 830.4 28.762 830.4 31.9224V79.2633ZM822.023 31.9224C822.023 29.8443 821.633 27.9178 820.854 26.1428C820.074 24.3245 818.992 22.7443 817.607 21.4022C816.265 20.0168 814.685 18.9345 812.866 18.1552C811.091 17.376 809.165 16.9863 807.087 16.9863H786.371V94.1344H807.087C809.165 94.1344 811.091 93.7448 812.866 92.9655C814.685 92.1862 816.265 91.1256 817.607 89.7835C818.992 88.4414 820.074 86.8829 820.854 85.1078C821.633 83.2895 822.023 81.3414 822.023 79.2633V31.9224Z" fill="#718096"/>
<path d="M885.274 80.4322H855.791L849.687 102.122H840.985L868.26 8.99876H872.675L900.08 102.122H891.443L885.274 80.4322ZM858.064 72.4446H883.066L870.792 29.5196L870.533 26.0778L870.273 29.5196L858.064 72.4446Z" fill="#718096"/>
<path d="M955.798 102.122L930.537 62.379H919.042V102.122H910.665V8.99876H940.213C943.373 8.99876 946.339 9.60486 949.109 10.8171C951.88 11.986 954.304 13.6095 956.383 15.6875C958.461 17.7656 960.084 20.2116 961.253 23.0257C962.465 25.7964 963.071 28.762 963.071 31.9224V39.4554C963.071 42.6158 962.465 45.603 961.253 48.417C960.084 51.1878 958.461 53.6122 956.383 55.6903C954.304 57.7683 951.88 59.4135 949.109 60.6257C946.339 61.7946 943.373 62.379 940.213 62.379L965.474 102.122H955.798ZM954.694 31.9224C954.694 29.8443 954.304 27.9178 953.525 26.1428C952.746 24.3245 951.685 22.7443 950.343 21.4022C949.001 20.0168 947.421 18.9345 945.603 18.1552C943.828 17.376 941.901 16.9863 939.823 16.9863H919.042V54.3915H939.823C941.901 54.3915 943.828 54.0018 945.603 53.2226C947.421 52.4433 949.001 51.3826 950.343 50.0405C951.685 48.6551 952.746 47.0749 953.525 45.2999C954.304 43.4816 954.694 41.5334 954.694 39.4554V31.9224Z" fill="#718096"/>
<path d="M981.514 102.122V8.99876H989.891V102.122H981.514Z" fill="#718096"/>
<path d="M1046.19 80.4322H1016.71L1010.61 102.122H1001.91L1029.18 8.99876H1033.6L1061 102.122H1052.36L1046.19 80.4322ZM1018.98 72.4446H1043.99L1031.71 29.5196L1031.45 26.0778L1031.19 29.5196L1018.98 72.4446Z" fill="#718096"/>
</svg>
